# xmcd
#
# Track frame offsets:
#	183
#	11773
#	21233
#	30133
#	42920
#	55203
#	68408
#	80043
#	91700
#	104258
#	116423
#	129293
#	142495
#	155398
#	169425
#	181358
#
# Disc length: 2570
#
# Revision: 4
# Processed by: cddbd v1.5.1PL0 Copyright (c) Steve Scherf et al.
# Submitted via: Media_Universe 3.0
# Normalized: r3:DSETVAR1,TDELIM( - )
#
DISCID=cc0a0810
DTITLE=Various Artist - Country Show - Volume 3
DYEAR=1900
DGENRE=Country
TTITLE0=Donna Fargo - The Happiest Girl In The Whole USA
TTITLE1=Lynn Anderson - Snowbird
TTITLE2=Waylon Jennings - Mean Old Greyhound Bus
TTITLE3=Dolly Parton - Little Blossom
TTITLE4=Kenny Rogers - Reuben James
TTITLE5=Lynn Anderson - Top Of The World
TTITLE6=Freddy Fender - I'm Leaving It All Up To You
TTITLE7=Billie Jo Spears - Try A Little Kindness
TTITLE8=Lynn Anderson - I Fall To Pieces
TTITLE9=Freddy Fender - Wasted Days And Wasted Nights
TTITLE10=Kenny Rogers - Ruby, Don't Take Your Love To Town
TTITLE11=Lynn Anderson - Rosegarden
TTITLE12=Kenny Rogers - Sleep Comes Easy
TTITLE13=Billie Jo Spears - Mr. Walker, It's All Over
TTITLE14=Donna Fargo - U.S. Of America
TTITLE15=Lynn Anderson - That'll Be The Day
EXTD=
EXTT0=Donna Fargo
EXTT1=Lynn Anderson
EXTT2=Waylon Jennings
EXTT3=Dolly Parton
EXTT4=Kenny Rogers
EXTT5=Lynn Anderson
EXTT6=Freddy Fender
EXTT7=Billy Jo Spears
EXTT8=Lynn Anderson
EXTT9=Freddy Fender
EXTT10=Kenny Rogers
EXTT11=Lynn Anderson
EXTT12=Kenny Rogers
EXTT13=Billie Jo Spears
EXTT14=Donna Fargo
EXTT15=Lynn Anderson
PLAYORDER=
